<svg width="20" height="18" viewBox="0 0 20 18" fill="none" xmlns="http://www.w3.org/2000/svg">
<path d="M3.86109 7.5068e-08C4.26937 7.5068e-08 4.62436 0.280343 4.71723 0.669522L5.39598 3.07085H19.1177C19.3894 3.07085 19.6455 3.19581 19.8126 3.4097C19.9796 3.62359 20.0393 3.90214 19.9742 4.16577L18.3266 10.827C18.2293 11.2209 17.8758 11.4975 17.4701 11.4975H6.93007C6.52159 11.4975 6.16681 11.2174 6.07175 10.8198L6.07592 10.8347L3.17677 1.76563H0.882395C0.394961 1.76563 0 1.37029 0 0.882816C0 0.395148 0.394961 -0.000198892 0.882395 7.5068e-08H3.86109ZM17.9903 4.83649H5.89117L7.61002 9.73187H16.7798L17.9903 4.83649Z" fill="white"/>
<path d="M9.03108 12.4219C10.389 12.4219 11.4933 13.5269 11.4933 14.8853C11.4933 16.2438 10.389 17.3489 9.03108 17.3489C7.67319 17.3489 6.56885 16.2438 6.56885 14.8853C6.56885 13.5269 7.67319 12.4219 9.03108 12.4219ZM9.03108 13.7739C8.41757 13.7739 7.92019 14.2715 7.92019 14.8853C7.92019 15.4993 8.41757 15.9969 9.03108 15.9969C9.6446 15.9969 10.142 15.4993 10.142 14.8853C10.142 14.2715 9.6446 13.7739 9.03108 13.7739Z" fill="white"/>
<path d="M17.2327 12.4219C18.5906 12.4219 19.695 13.5269 19.695 14.8853C19.695 16.2438 18.5906 17.3489 17.2327 17.3489C15.8748 17.3489 14.7705 16.2438 14.7705 14.8853C14.7705 13.5269 15.8748 12.4219 17.2327 12.4219ZM17.2327 13.7739C16.6192 13.7739 16.1218 14.2715 16.1218 14.8853C16.1218 15.4993 16.6192 15.9969 17.2327 15.9969C17.8463 15.9969 18.3438 15.4993 18.3436 14.8853C18.3438 14.2715 17.8463 13.7739 17.2327 13.7739Z" fill="white"/>
</svg>
